<?xml version="1.0" encoding="utf-8"?>
<!-- Generator: Adobe Illustrator 18.1.1, SVG Export Plug-In . SVG Version: 6.00 Build 0)  -->
<svg version="1.1" id="Layer_1" xmlns="http://www.w3.org/2000/svg" xmlns:xlink="http://www.w3.org/1999/xlink" x="0px" y="0px"
	 viewBox="0 0 792 612" enable-background="new 0 0 792 612" xml:space="preserve">
<circle fill="#F4380C" cx="395" cy="407.5" r="166.5"/>
<circle fill="#51CECB" cx="395" cy="192.5" r="166.5"/>
<polyline fill="#521682" stroke="#531A7E" stroke-width="2" stroke-miterlimit="10" points="306.9,256.6 311.1,261.9 316,244.8 
	316,244.8 330.8,234.8 338,241 354,249.6 343.6,254 348,258.4 350.1,265.4 359.6,269.8 372,243 376.1,240.4 380.2,242.6 
	385.1,237.3 398.4,223.3 406.5,230.3 428.2,232.5 434.5,242.1 440.6,254 446.4,254 453.2,268.5 464.6,272 481.4,298.4 280,296.4 
	280,328.9 286.6,278.6 288.7,270.7 "/>
<polygon fill="#F4380C" points="325.6,291.1 269.1,303.5 269.1,333.7 355.2,373.2 441.6,365.2 520.7,338.1 524.4,306 515.7,298.8 
	442.3,291.1 "/>
<g>
	<path fill="#521682" stroke="#531A7E" stroke-width="2" stroke-miterlimit="10" d="M269.1,300c0,0,116.1-133.4,251.6,0
		C520.7,300,406.6,428.3,269.1,300z"/>
	<path fill="#521682" stroke="#531A7E" stroke-width="2" stroke-miterlimit="10" d="M520.7,300c0,0-116.1-133.4-251.6,0
		C269.1,300,383.2,428.3,520.7,300z"/>
</g>
<g>
	<path fill="#FFFFFF" d="M305.2,262.4h-43.3V284h43.3v7.2h-50.5v-36h50.5V262.4z"/>
	<path fill="#FFFFFF" d="M312.4,255.2h50.5v36h-50.5V255.2z M319.6,284h36v-21.6h-36V284z"/>
	<path fill="#FFFFFF" d="M370,255.2h7.2V284h43.3v7.2H370V255.2z"/>
	<path fill="#FFFFFF" d="M427.7,255.2h50.5v36h-50.5V255.2z M434.9,284h36v-21.6h-36V284z"/>
	<path fill="#FFFFFF" d="M492.6,291.3h-7.2v-36h50.5v21.6h-7.2l7.2,14.4h-8.1l-7.2-14.4h-28V291.3z M492.6,269.6h36v-7.2h-36V269.6z
		"/>
</g>
<g>
	<path fill="#FFFFFF" d="M335,316h-43.3v21.6H335v7.2h-50.5v-36H335V316z"/>
	<path fill="#FFFFFF" d="M342.2,308.8h50.5v36h-50.5V308.8z M349.4,337.6h36V316h-36V337.6z"/>
	<path fill="#FFFFFF" d="M399.9,344.8v-36h43.3l7.2,7.2v21.6l-7.2,7.2H399.9z M443.2,337.6V316h-36v21.6H443.2z"/>
	<path fill="#FFFFFF" d="M508.1,330.4h-43.3v7.2h43.3v7.2h-50.5v-36h50.5v7.2h-43.3v7.2h43.3V330.4z"/>
</g>
<g>
	<path fill="#FFFFFF" d="M344.7,305.7h-2v-10h14v10h-2v-4h-10V305.7z M344.7,299.7h10v-2h-10V299.7z"/>
	<path fill="#FFFFFF" d="M388.6,295.7h2l10,7.5v-7.5h2v10h-2l-10-7.5v7.5h-2V295.7z"/>
	<path fill="#FFFFFF" d="M434.6,305.7v-10h12l2,2v6l-2,2H434.6z M446.6,303.7v-6h-10v6H446.6z"/>
</g>
<g>
	<path fill="#FFFFFF" d="M379.7,354.5h-1.2v-5.8h8.2v5.8h-1.2v-2.3h-5.8V354.5z M379.7,351h5.8v-1.2h-5.8V351z"/>
	<path fill="#FFFFFF" d="M391.8,349.3v-0.6h1.2l2.9,4.4l2.9-4.4h1.2v0.6l-3.5,5.2h-1.2L391.8,349.3z"/>
	<path fill="#FFFFFF" d="M405.1,348.7h1.2v4.7h7v1.2h-8.2V348.7z"/>
</g>
<g>
	<g>
		<rect x="330.8" y="298.5" fill="#FFFFFF" width="2.4" height="2.4"/>
		<rect x="299.3" y="298.5" fill="#FFFFFF" width="2.4" height="2.4"/>
		<rect x="267.9" y="298.5" fill="#FFFFFF" width="2.4" height="2.4"/>
	</g>
	<g>
		<rect x="519.6" y="298.5" fill="#FFFFFF" width="2.4" height="2.4"/>
		<rect x="488.1" y="298.5" fill="#FFFFFF" width="2.4" height="2.4"/>
		<rect x="456.7" y="298.5" fill="#FFFFFF" width="2.4" height="2.4"/>
	</g>
</g>
<g>
	<rect x="415.8" y="363.2" fill="#FFFFFF" width="1.6" height="1.6"/>
	<rect x="394.6" y="363.2" fill="#FFFFFF" width="1.6" height="1.6"/>
	<rect x="373.5" y="363.2" fill="#FFFFFF" width="1.6" height="1.6"/>
</g>
<rect x="186" y="363.8" fill="#FFFFFF" width="172" height="0.8"/>
<rect x="431" y="363.8" fill="#FFFFFF" width="172" height="0.8"/>
<rect x="200" y="248.8" fill="#FFFFFF" width="387.8" height="0.8"/>
<rect x="201.1" y="244.4" fill="#FFFFFF" width="387.8" height="0.8"/>
<rect x="200" y="394.8" fill="#FFFFFF" stroke="#FFFFFF" stroke-miterlimit="10" width="387.8" height="0.8"/>
<rect x="201.1" y="380.4" fill="#FFFFFF" stroke="#FFFFFF" stroke-miterlimit="10" width="387.8" height="0.8"/>
<rect x="201.1" y="234.4" fill="#FFFFFF" width="387.8" height="0.8"/>
<rect x="202.1" y="242.4" fill="none" stroke="#FFFFFF" stroke-width="2" stroke-miterlimit="10" width="387.8" height="0.8"/>
<rect x="373.5" y="314" fill="#FFFFFF" width="16.2" height="16.2"/>
<rect x="403.5" y="325" fill="#FFFFFF" width="16.2" height="16.2"/>
<rect x="440" y="223.8" fill="#FFFFFF" width="172" height="0.8"/>
<rect x="200" y="400.8" fill="#FFFFFF" width="172" height="0.8"/>
</svg>
